<?xml version="1.0" encoding="utf-8"?>
<!-- Generator: Adobe Illustrator 18.0.0, SVG Export Plug-In . SVG Version: 6.00 Build 0)  -->
<!DOCTYPE svg PUBLIC "-//W3C//DTD SVG 1.1//EN" "http://www.w3.org/Graphics/SVG/1.1/DTD/svg11.dtd">
<svg version="1.1" id="Camada_1" xmlns="http://www.w3.org/2000/svg" xmlns:xlink="http://www.w3.org/1999/xlink" x="0px" y="0px"
	 viewBox="0 0 169 41.7" enable-background="new 0 0 169 41.7" xml:space="preserve">
<path fill="#8EAFD2" d="M20.8,0.8c-11,0-20,9-20,20c0,11,9,20,20,20c11,0,20-9,20-20C40.8,9.8,31.8,0.8,20.8,0.8z M28.3,30l-2.8,2.8
	l-12.2-12l12.2-12l2.8,2.8L19,20.8L28.3,30z"/>
<g>
	<path fill="#104584" d="M46.5,13.3H53l4.5,11.5h0l4.5-11.5h6.5l-7.9,16.1h-6.3L46.5,13.3z"/>
	<path fill="#104584" d="M79,12.8c6.3,0,11.6,1.9,11.6,8.5c0,6.7-5.3,8.5-11.6,8.5c-6.3,0-11.6-1.9-11.6-8.5
		C67.4,14.6,72.7,12.8,79,12.8z M79,26.2c3.2,0,5.3-1.6,5.3-4.9c0-3.4-2.1-4.9-5.3-4.9c-3.2,0-5.3,1.6-5.3,4.9
		C73.7,24.7,75.8,26.2,79,26.2z"/>
	<path fill="#104584" d="M92.1,13.3H98v12.3h10.9v3.7H92.1V13.3z"/>
	<path fill="#104584" d="M108,13.3h19v3.6h-6.5v12.5h-5.9V16.9H108V13.3z"/>
	<path fill="#104584" d="M132.8,13.3h7.3l7.7,16.1h-6.4l-1.1-2.6h-7.8l-1.1,2.6h-6.4L132.8,13.3z M136.4,17.3L136.4,17.3l-2.5,6.1h5
		L136.4,17.3z"/>
	<path fill="#104584" d="M147.6,13.3h14.3c4.4,0,6,1.8,6,4.5c0,2.1-1.3,3.3-2.8,3.7v0c1.1,0.3,2,1.1,2.1,2.9c0.3,3.2,0.4,4.2,1.1,5
		h-6.5c-0.3-0.7-0.4-1.6-0.4-2.4c0-2.5-0.9-3-2.4-3h-5.4v5.4h-5.9V13.3z M153.6,20.4h5.7c1.5,0,2.2-0.7,2.2-1.8
		c0-1.1-0.8-1.7-2.2-1.7h-5.7V20.4z"/>
</g>
</svg>
