<?xml version="1.0" encoding="utf-8"?>
<!-- Generator: Adobe Illustrator 18.0.0, SVG Export Plug-In . SVG Version: 6.00 Build 0)  -->
<!DOCTYPE svg PUBLIC "-//W3C//DTD SVG 1.1//EN" "http://www.w3.org/Graphics/SVG/1.1/DTD/svg11.dtd">
<svg version="1.1" id="Camada_1" xmlns="http://www.w3.org/2000/svg" xmlns:xlink="http://www.w3.org/1999/xlink" x="0px" y="0px"
	 viewBox="0 0 141.2 130.2" enable-background="new 0 0 141.2 130.2" xml:space="preserve">
<path fill="#FFFFFF" stroke="#0F4584" stroke-width="4" stroke-miterlimit="10" d="M121.3,94.2H19.8c-3.9,0-7.1-3.2-7.1-7.1v-76
	c0-3.9,3.2-7.1,7.1-7.1h101.5c3.9,0,7.1,3.2,7.1,7.1v76C128.4,91,125.2,94.2,121.3,94.2z"/>
<g>
	<path fill="#124485" d="M29.4,121.4H25v3h5.2v1.6h-7.3v-10.7h7.3v1.6H25v2.7h4.4V121.4z"/>
	<path fill="#124485" d="M37.7,115.5l2.7,7.9h0l2.7-7.9H46v10.7h-2.1v-3.2l0.2-4.7l0,0l-2.9,7.9h-1.4l-2.8-7.9l0,0l0.2,4.7v3.2h-2.1
		v-10.7H37.7z"/>
	<path fill="#124485" d="M56.3,115.5v7.1c0,1.2-0.4,2.1-1.2,2.8s-1.8,1-3.1,1c-1.3,0-2.3-0.3-3.1-1c-0.8-0.6-1.2-1.6-1.2-2.8v-7.1
		h2.1v7.1c0,0.7,0.2,1.2,0.6,1.6c0.4,0.3,0.9,0.5,1.6,0.5c0.7,0,1.2-0.2,1.6-0.5c0.4-0.3,0.6-0.9,0.6-1.6v-7.1H56.3z"/>
	<path fill="#124485" d="M60.3,126.1h-2.1v-10.7h2.1V126.1z"/>
	<path fill="#124485" d="M69.6,117.1h-3v9h-2.1v-9h-3v-1.6h8.2V117.1z"/>
	<path fill="#124485" d="M79,121.7c0,1.3-0.4,2.4-1.2,3.2c-0.8,0.9-1.9,1.3-3.2,1.3c-1.3,0-2.4-0.4-3.2-1.3
		c-0.8-0.9-1.2-1.9-1.2-3.2v-1.9c0-1.3,0.4-2.4,1.2-3.2c0.8-0.9,1.9-1.3,3.2-1.3c1.3,0,2.4,0.4,3.2,1.3c0.8,0.9,1.2,1.9,1.2,3.2
		V121.7z M76.9,119.8c0-0.8-0.2-1.5-0.6-2c-0.4-0.5-1-0.8-1.7-0.8c-0.7,0-1.3,0.3-1.7,0.8c-0.4,0.5-0.6,1.2-0.6,2.1v1.9
		c0,0.8,0.2,1.5,0.6,2.1c0.4,0.5,1,0.8,1.7,0.8c0.7,0,1.3-0.3,1.7-0.8s0.6-1.2,0.6-2.1V119.8z"/>
	<path fill="#124485" d="M86.9,115.5l2.7,7.9h0l2.7-7.9h2.8v10.7h-2.1v-3.2l0.2-4.7l0,0l-2.9,7.9h-1.4l-2.8-7.9l0,0l0.2,4.7v3.2
		h-2.1v-10.7H86.9z"/>
	<path fill="#124485" d="M102.8,123.8H99l-0.7,2.3h-2.2l3.7-10.7h2.2l3.7,10.7h-2.2L102.8,123.8z M99.6,122.1h2.7l-1.3-4.2h0
		L99.6,122.1z"/>
	<path fill="#124485" d="M108.8,126.1h-2.1v-10.7h2.1V126.1z"/>
	<path fill="#124485" d="M116.5,123.3c0-0.4-0.1-0.7-0.4-1c-0.3-0.2-0.8-0.5-1.5-0.7c-1.3-0.4-2.2-0.8-2.9-1.3c-0.7-0.5-1-1.2-1-2.1
		s0.4-1.6,1.1-2.1c0.7-0.6,1.7-0.8,2.9-0.8c1.2,0,2.1,0.3,2.9,0.9c0.7,0.6,1.1,1.4,1.1,2.3l0,0h-2.1c0-0.5-0.2-0.9-0.5-1.2
		c-0.3-0.3-0.8-0.5-1.4-0.5c-0.6,0-1,0.1-1.3,0.4s-0.5,0.6-0.5,1c0,0.4,0.2,0.7,0.5,0.9c0.3,0.2,0.9,0.5,1.7,0.7
		c1.2,0.3,2.1,0.8,2.7,1.3s0.9,1.2,0.9,2.1c0,0.9-0.4,1.6-1.1,2.2c-0.7,0.5-1.7,0.8-2.9,0.8c-1.2,0-2.2-0.3-3-0.9s-1.3-1.4-1.3-2.5
		l0,0h2.1c0,0.6,0.2,1.1,0.6,1.4c0.4,0.3,0.9,0.4,1.6,0.4c0.6,0,1-0.1,1.3-0.4C116.4,124.1,116.5,123.7,116.5,123.3z"/>
</g>
<g>
	<path fill-rule="evenodd" clip-rule="evenodd" fill="#0F4584" d="M66,26.8h9.2v45.3H66V26.8z"/>
	<path fill-rule="evenodd" clip-rule="evenodd" fill="#0F4584" d="M47.9,44.5h45.3v9.2H47.9V44.5z"/>
</g>
</svg>
