<?xml version="1.0" encoding="utf-8"?>
<!-- Generator: Adobe Illustrator 18.0.0, SVG Export Plug-In . SVG Version: 6.00 Build 0)  -->
<!DOCTYPE svg PUBLIC "-//W3C//DTD SVG 1.1//EN" "http://www.w3.org/Graphics/SVG/1.1/DTD/svg11.dtd">
<svg version="1.1" id="Camada_1" xmlns="http://www.w3.org/2000/svg" xmlns:xlink="http://www.w3.org/1999/xlink" x="0px" y="0px"
	 viewBox="0 0 141.2 130.2" enable-background="new 0 0 141.2 130.2" xml:space="preserve">
<path fill="#FFFFFF" stroke="#0F4584" stroke-width="4" stroke-miterlimit="10" d="M121.3,94.2H19.8c-3.9,0-7.1-3.2-7.1-7.1v-76
	c0-3.9,3.2-7.1,7.1-7.1h101.5c3.9,0,7.1,3.2,7.1,7.1v76C128.4,91,125.2,94.2,121.3,94.2z"/>
<g>
	<path fill="#124485" d="M35.9,126.1h-2.1v-10.7h2.1V126.1z"/>
	<path fill="#124485" d="M46.5,126.1h-2.1l-4.3-7.3l0,0v7.3h-2.1v-10.7H40l4.3,7.3l0,0v-7.3h2.1V126.1z"/>
	<path fill="#124485" d="M48.3,126.1v-10.7H52c1.3,0,2.4,0.4,3.2,1.2s1.3,1.9,1.3,3.2v1.8c0,1.3-0.4,2.4-1.3,3.2
		c-0.8,0.8-1.9,1.2-3.2,1.2H48.3z M50.5,117.1v7.4h1.4c0.8,0,1.4-0.3,1.8-0.8s0.7-1.2,0.7-2v-1.8c0-0.8-0.2-1.5-0.7-2
		c-0.4-0.5-1-0.8-1.8-0.8H50.5z"/>
	<path fill="#124485" d="M66.4,115.5v7.1c0,1.2-0.4,2.1-1.2,2.8s-1.8,1-3.1,1c-1.3,0-2.3-0.3-3.1-1c-0.8-0.6-1.2-1.6-1.2-2.8v-7.1
		H60v7.1c0,0.7,0.2,1.2,0.6,1.6c0.4,0.3,0.9,0.5,1.6,0.5c0.7,0,1.2-0.2,1.6-0.5c0.4-0.3,0.6-0.9,0.6-1.6v-7.1H66.4z M62.5,112.7h2.3
		l0,0l-2,1.9h-1.7L62.5,112.7z"/>
	<path fill="#124485" d="M73.9,123.3c0-0.4-0.1-0.7-0.4-1c-0.3-0.2-0.8-0.5-1.5-0.7c-1.3-0.4-2.2-0.8-2.9-1.3s-1-1.2-1-2.1
		s0.4-1.6,1.1-2.1c0.7-0.6,1.7-0.8,2.9-0.8c1.2,0,2.1,0.3,2.9,0.9c0.7,0.6,1.1,1.4,1.1,2.3l0,0h-2.1c0-0.5-0.2-0.9-0.5-1.2
		c-0.3-0.3-0.8-0.5-1.4-0.5c-0.6,0-1,0.1-1.3,0.4s-0.5,0.6-0.5,1c0,0.4,0.2,0.7,0.5,0.9c0.3,0.2,0.9,0.5,1.7,0.7
		c1.2,0.3,2.1,0.8,2.7,1.3s0.9,1.2,0.9,2.1c0,0.9-0.4,1.6-1.1,2.2c-0.7,0.5-1.7,0.8-2.9,0.8c-1.2,0-2.2-0.3-3-0.9s-1.3-1.4-1.3-2.5
		l0,0h2.1c0,0.6,0.2,1.1,0.6,1.4c0.4,0.3,0.9,0.4,1.6,0.4c0.6,0,1-0.1,1.3-0.4C73.8,124.1,73.9,123.7,73.9,123.3z"/>
	<path fill="#124485" d="M84.9,117.1h-3v9h-2.1v-9h-3v-1.6h8.2V117.1z"/>
	<path fill="#124485" d="M88.1,121.9v4.3h-2.1v-10.7h4c1.2,0,2.2,0.3,2.9,0.8c0.7,0.6,1,1.3,1,2.3c0,0.6-0.1,1-0.4,1.4
		s-0.7,0.7-1.3,1c0.6,0.2,1.1,0.5,1.4,0.9c0.3,0.4,0.4,1,0.4,1.6v0.8c0,0.3,0,0.6,0.1,0.9c0.1,0.3,0.2,0.6,0.4,0.7v0.2h-2.2
		c-0.2-0.2-0.3-0.4-0.4-0.8s-0.1-0.7-0.1-1v-0.8c0-0.5-0.1-0.9-0.4-1.2c-0.3-0.3-0.7-0.4-1.2-0.4H88.1z M88.1,120.2h1.8
		c0.6,0,1-0.1,1.3-0.4c0.3-0.3,0.4-0.6,0.4-1.1c0-0.5-0.1-0.9-0.4-1.2c-0.3-0.3-0.7-0.4-1.3-0.4h-1.9V120.2z"/>
	<path fill="#124485" d="M98,126.1h-2.1v-10.7H98V126.1z"/>
	<path fill="#124485" d="M105.7,123.8h-3.7l-0.7,2.3H99l3.7-10.7h2.2l3.7,10.7h-2.2L105.7,123.8z M102.5,122.1h2.7l-1.3-4.2h0
		L102.5,122.1z"/>
</g>
<g>
	<path fill="#0F4783" d="M44.1,28.5v4c1-1.7,4.7-3,9.1-3c4.4,0,8.1,1.3,9.1,3v-4c0-2.1-4.1-3.9-9.1-3.9
		C48.2,24.7,44.1,26.4,44.1,28.5L44.1,28.5z M44.1,28.5"/>
	<g>
		<defs>
			<rect id="SVGID_1_" x="37" y="11.5" width="71.8" height="68.8"/>
		</defs>
		<clipPath id="SVGID_2_">
			<use xlink:href="#SVGID_1_"  overflow="visible"/>
		</clipPath>
		<path clip-path="url(#SVGID_2_)" fill="#0F4783" d="M44.1,79.5c0,0.4,0.3,0.8,0.8,0.8h16.8c0.4,0,0.8-0.3,0.8-0.8V36.6
			c-1-1.7-4.7-3-9.1-3c-4.4,0-8.1,1.3-9.1,3V79.5z M44.1,79.5"/>
		<path clip-path="url(#SVGID_2_)" fill="#0F4783" d="M37,56.1v23.4c0,0.4,0.3,0.8,0.8,0.8h4c0.4,0,0.8-0.3,0.8-0.8V56.1
			c0-0.4-0.3-0.8-0.8-0.8h-4C37.4,55.3,37,55.7,37,56.1L37,56.1z M37,56.1"/>
	</g>
	<path fill="#0F4783" d="M57.9,22.2c0,0.2,0,0.3,0,0.5c0,0.1,0,0.1,0,0.2c0,0.1,0,0.1,0,0.2c0,0.2,0.1,0.3,0.1,0.3s0.1-0.1,0.2-0.2
		c0.1-0.1,0.1-0.1,0.2-0.2c0,0,0.1-0.1,0.1-0.1c0,0,0.1-0.1,0.2-0.2c0.1-0.1,0.2-0.2,0.4-0.3c0.1-0.1,0.1-0.1,0.2-0.2
		c0.1-0.1,0.2-0.1,0.2-0.2c0.3-0.2,0.7-0.4,1.1-0.6c0.9-0.3,1.9-0.6,3-0.8c0.6-0.1,1.2-0.2,1.8-0.2c0.2,0,0.3,0,0.5,0
		c0.2,0,0.4,0,0.5-0.1c0.3,0,0.8-0.1,1.1-0.2c0.8-0.1,1.5-0.3,2.3-0.6c0.7-0.3,1.5-0.6,2.2-1c0.7-0.4,1.3-0.9,1.8-1.4
		c0.5-0.5,1-1.1,1.3-1.7c0.3-0.6,0.5-1.1,0.6-1.6c0.1-0.5,0.2-0.9,0.2-1.3c0-0.3,0-0.6,0-0.8c0-0.2,0-0.3,0-0.3s-0.1,0.1-0.2,0.2
		c-0.1,0.1-0.1,0.1-0.2,0.2c0,0-0.1,0.1-0.2,0.1c-0.1,0.1-0.1,0.1-0.2,0.2c-0.2,0.2-0.5,0.5-0.8,0.7c-0.3,0.3-0.7,0.5-1.1,0.7
		c-0.4,0.2-0.8,0.4-1.3,0.6c-0.5,0.2-1,0.3-1.5,0.5c-0.5,0.1-1.1,0.3-1.7,0.4c-0.6,0.1-1.2,0.3-1.9,0.4c-0.3,0.1-0.6,0.1-1,0.2
		l-0.3,0l-0.3,0.1c0,0,0,0,0,0c0.1-0.1,0.2-0.3,0.3-0.4c0.3-0.6,0.5-1.1,0.6-1.6c0.1-0.5,0.2-0.9,0.2-1.3c0-0.3,0-0.6,0-0.8
		c0-0.2,0-0.3,0-0.3s-0.1,0.1-0.2,0.2c-0.1,0.1-0.1,0.1-0.2,0.2c0,0-0.1,0.1-0.2,0.1c-0.1,0.1-0.1,0.1-0.2,0.2
		c-0.2,0.2-0.5,0.5-0.8,0.7c-0.3,0.3-0.7,0.5-1.1,0.7c-0.4,0.2-0.8,0.4-1.3,0.6c-0.5,0.2-1,0.3-1.5,0.5c-0.5,0.1-1.1,0.3-1.7,0.4
		c-0.6,0.1-1.2,0.3-1.9,0.4c-0.3,0.1-0.6,0.1-1,0.2l-0.3,0l-0.3,0.1c-0.2,0-0.4,0.1-0.6,0.1c-0.8,0.2-1.5,0.4-2.2,0.7
		c-0.7,0.3-1.4,0.7-2,1.1c-0.6,0.4-1.1,0.9-1.5,1.5c-0.4,0.5-0.7,1-0.9,1.5c-0.2,0.5-0.3,0.9-0.3,1.3c0,0.2,0,0.3,0,0.5
		c0,0.1,0,0.1,0,0.2c0,0.1,0,0.1,0,0.2c0,0.2,0.1,0.3,0.1,0.3s0.1-0.1,0.2-0.2c0.1-0.1,0.1-0.1,0.2-0.2c0,0,0.1-0.1,0.1-0.1
		c0.1,0,0.1-0.1,0.2-0.1c0.1-0.1,0.2-0.2,0.4-0.3c0.1-0.1,0.1-0.1,0.2-0.2c0.1-0.1,0.2-0.1,0.2-0.2c0.3-0.2,0.7-0.4,1.1-0.6
		c0.9-0.3,1.9-0.6,3-0.8c0.6-0.1,1.2-0.2,1.8-0.2c0.2,0,0.3,0,0.5,0c0.2,0,0.4,0,0.5-0.1c0.3,0,0.8-0.1,1.1-0.2
		c0.2,0,0.4-0.1,0.7-0.1c-0.2,0.3-0.3,0.6-0.5,0.9C58,21.4,57.9,21.8,57.9,22.2L57.9,22.2z M57.9,22.2"/>
	<path fill="#0F4783" d="M101.2,80.3h6.8c0.4,0,0.8-0.3,0.8-0.8V48c0-0.6-0.7-1-1.2-0.6l-10.2,6.9c-0.5,0.3-1.2,0-1.2-0.6V48
		c0-0.6-0.7-1-1.2-0.6l-10.2,6.9c-0.5,0.3-1.2,0-1.2-0.6V48c0-0.6-0.7-1-1.2-0.6L71,55.2c-0.1,0.1-0.3,0.1-0.4,0.1h-5.9
		c-0.4,0-0.8,0.3-0.8,0.8v23.4c0,0.4,0.3,0.8,0.8,0.8h24.5c0.4,0,0.8-0.3,0.8-0.8v-6.9c0-0.4,0.3-0.8,0.8-0.8h9
		c0.4,0,0.8,0.3,0.8,0.8v6.9C100.4,79.9,100.8,80.3,101.2,80.3L101.2,80.3z M73.4,66.4c0,0.4-0.3,0.8-0.8,0.8h-4.1
		c-0.4,0-0.8-0.3-0.8-0.8v-4.1c0-0.4,0.3-0.8,0.8-0.8h4.1c0.4,0,0.8,0.3,0.8,0.8V66.4z M81.3,66.4c0,0.4-0.3,0.8-0.8,0.8h-4.1
		c-0.4,0-0.8-0.3-0.8-0.8v-4.1c0-0.4,0.3-0.8,0.8-0.8h4.1c0.4,0,0.8,0.3,0.8,0.8V66.4z M89.2,66.4c0,0.4-0.3,0.8-0.8,0.8h-4.1
		c-0.4,0-0.8-0.3-0.8-0.8v-4.1c0-0.4,0.3-0.8,0.8-0.8h4.1c0.4,0,0.8,0.3,0.8,0.8V66.4z M97.1,66.4c0,0.4-0.3,0.8-0.8,0.8h-4.1
		c-0.4,0-0.8-0.3-0.8-0.8v-4.1c0-0.4,0.3-0.8,0.8-0.8h4.1c0.4,0,0.8,0.3,0.8,0.8V66.4z M100.1,67.2c-0.4,0-0.8-0.3-0.8-0.8v-4.1
		c0-0.4,0.3-0.8,0.8-0.8h4.1c0.4,0,0.8,0.3,0.8,0.8v4.1c0,0.4-0.3,0.8-0.8,0.8H100.1z M100.1,67.2"/>
</g>
</svg>
