<?xml version="1.0" encoding="utf-8"?>
<!-- Generator: Adobe Illustrator 18.0.0, SVG Export Plug-In . SVG Version: 6.00 Build 0)  -->
<!DOCTYPE svg PUBLIC "-//W3C//DTD SVG 1.1//EN" "http://www.w3.org/Graphics/SVG/1.1/DTD/svg11.dtd">
<svg version="1.1" id="Camada_1" xmlns="http://www.w3.org/2000/svg" xmlns:xlink="http://www.w3.org/1999/xlink" x="0px" y="0px"
	 viewBox="0 0 141.2 130.2" enable-background="new 0 0 141.2 130.2" xml:space="preserve">
<path fill="#FFFFFF" stroke="#0F4584" stroke-width="4" stroke-miterlimit="10" d="M121.3,94.2H19.8c-3.9,0-7.1-3.2-7.1-7.1v-76
	c0-3.9,3.2-7.1,7.1-7.1h101.5c3.9,0,7.1,3.2,7.1,7.1v76C128.4,91,125.2,94.2,121.3,94.2z"/>
<g>
	<path fill="#124485" d="M10.6,126.1H8.4v-10.7h2.1V126.1z"/>
	<path fill="#124485" d="M21.2,126.1H19l-4.3-7.3l0,0v7.3h-2.1v-10.7h2.1l4.3,7.3l0,0v-7.3h2.1V126.1z"/>
	<path fill="#124485" d="M29.6,121.7h-4.5v4.4H23v-10.7h7.4v1.6h-5.2v2.9h4.5V121.7z"/>
	<path fill="#124485" d="M33.7,121.9v4.3h-2.1v-10.7h4c1.2,0,2.2,0.3,2.9,0.8c0.7,0.6,1,1.3,1,2.3c0,0.6-0.1,1-0.4,1.4
		s-0.7,0.7-1.3,1c0.6,0.2,1.1,0.5,1.4,0.9c0.3,0.4,0.4,1,0.4,1.6v0.8c0,0.3,0,0.6,0.1,0.9c0.1,0.3,0.2,0.6,0.4,0.7v0.2h-2.2
		c-0.2-0.2-0.3-0.4-0.4-0.8s-0.1-0.7-0.1-1v-0.8c0-0.5-0.1-0.9-0.4-1.2c-0.3-0.3-0.7-0.4-1.2-0.4H33.7z M33.7,120.2h1.8
		c0.6,0,1-0.1,1.3-0.4c0.3-0.3,0.4-0.6,0.4-1.1c0-0.5-0.1-0.9-0.4-1.2c-0.3-0.3-0.7-0.4-1.3-0.4h-1.9V120.2z"/>
	<path fill="#124485" d="M47,123.8h-3.7l-0.7,2.3h-2.2l3.7-10.7h2.2l3.7,10.7h-2.2L47,123.8z M43.8,122.1h2.7l-1.3-4.2h0L43.8,122.1
		z"/>
	<path fill="#124485" d="M57.3,121.4h-4.4v3h5.2v1.6h-7.3v-10.7H58v1.6h-5.1v2.7h4.4V121.4z"/>
	<path fill="#124485" d="M65,123.3c0-0.4-0.1-0.7-0.4-1c-0.3-0.2-0.8-0.5-1.5-0.7c-1.3-0.4-2.2-0.8-2.9-1.3c-0.7-0.5-1-1.2-1-2.1
		s0.4-1.6,1.1-2.1c0.7-0.6,1.7-0.8,2.9-0.8c1.2,0,2.1,0.3,2.9,0.9c0.7,0.6,1.1,1.4,1.1,2.3l0,0H65c0-0.5-0.2-0.9-0.5-1.2
		c-0.3-0.3-0.8-0.5-1.4-0.5c-0.6,0-1,0.1-1.3,0.4s-0.5,0.6-0.5,1c0,0.4,0.2,0.7,0.5,0.9c0.3,0.2,0.9,0.5,1.7,0.7
		c1.2,0.3,2.1,0.8,2.7,1.3s0.9,1.2,0.9,2.1c0,0.9-0.4,1.6-1.1,2.2c-0.7,0.5-1.7,0.8-2.9,0.8c-1.2,0-2.2-0.3-3-0.9s-1.3-1.4-1.3-2.5
		l0,0H61c0,0.6,0.2,1.1,0.6,1.4c0.4,0.3,0.9,0.4,1.6,0.4c0.6,0,1-0.1,1.3-0.4C64.8,124.1,65,123.7,65,123.3z"/>
	<path fill="#124485" d="M76,117.1h-3v9h-2.1v-9h-3v-1.6H76V117.1z"/>
	<path fill="#124485" d="M79.1,121.9v4.3H77v-10.7h4c1.2,0,2.2,0.3,2.9,0.8c0.7,0.6,1,1.3,1,2.3c0,0.6-0.1,1-0.4,1.4s-0.7,0.7-1.3,1
		c0.6,0.2,1.1,0.5,1.4,0.9c0.3,0.4,0.4,1,0.4,1.6v0.8c0,0.3,0,0.6,0.1,0.9c0.1,0.3,0.2,0.6,0.4,0.7v0.2h-2.2
		c-0.2-0.2-0.3-0.4-0.4-0.8s-0.1-0.7-0.1-1v-0.8c0-0.5-0.1-0.9-0.4-1.2c-0.3-0.3-0.7-0.4-1.2-0.4H79.1z M79.1,120.2H81
		c0.6,0,1-0.1,1.3-0.4c0.3-0.3,0.4-0.6,0.4-1.1c0-0.5-0.1-0.9-0.4-1.2c-0.3-0.3-0.7-0.4-1.3-0.4h-1.9V120.2z"/>
	<path fill="#124485" d="M95.2,115.5v7.1c0,1.2-0.4,2.1-1.2,2.8s-1.8,1-3.1,1c-1.3,0-2.3-0.3-3.1-1c-0.8-0.6-1.2-1.6-1.2-2.8v-7.1
		h2.1v7.1c0,0.7,0.2,1.2,0.6,1.6c0.4,0.3,0.9,0.5,1.6,0.5c0.7,0,1.2-0.2,1.6-0.5c0.4-0.3,0.6-0.9,0.6-1.6v-7.1H95.2z"/>
	<path fill="#124485" d="M104.3,117.1h-3v9h-2.1v-9h-3v-1.6h8.2V117.1z"/>
	<path fill="#124485" d="M113.8,115.5v7.1c0,1.2-0.4,2.1-1.2,2.8s-1.8,1-3.1,1c-1.3,0-2.3-0.3-3.1-1c-0.8-0.6-1.2-1.6-1.2-2.8v-7.1
		h2.1v7.1c0,0.7,0.2,1.2,0.6,1.6c0.4,0.3,0.9,0.5,1.6,0.5c0.7,0,1.2-0.2,1.6-0.5c0.4-0.3,0.6-0.9,0.6-1.6v-7.1H113.8z"/>
	<path fill="#124485" d="M117.6,121.9v4.3h-2.1v-10.7h4c1.2,0,2.2,0.3,2.9,0.8c0.7,0.6,1,1.3,1,2.3c0,0.6-0.1,1-0.4,1.4
		s-0.7,0.7-1.3,1c0.6,0.2,1.1,0.5,1.4,0.9c0.3,0.4,0.4,1,0.4,1.6v0.8c0,0.3,0,0.6,0.1,0.9c0.1,0.3,0.2,0.6,0.4,0.7v0.2h-2.2
		c-0.2-0.2-0.3-0.4-0.4-0.8s-0.1-0.7-0.1-1v-0.8c0-0.5-0.1-0.9-0.4-1.2c-0.3-0.3-0.7-0.4-1.2-0.4H117.6z M117.6,120.2h1.8
		c0.6,0,1-0.1,1.3-0.4c0.3-0.3,0.4-0.6,0.4-1.1c0-0.5-0.1-0.9-0.4-1.2c-0.3-0.3-0.7-0.4-1.3-0.4h-1.9V120.2z"/>
	<path fill="#124485" d="M131,123.8h-3.7l-0.7,2.3h-2.2l3.7-10.7h2.2l3.7,10.7h-2.2L131,123.8z M127.8,122.1h2.7l-1.3-4.2h0
		L127.8,122.1z"/>
</g>
<g>
	<path fill="#0F4584" d="M61.4,46h17.3v5.4H61.4V46z"/>
	<path fill="#0F4584" d="M46.8,54.6l-0.1,3.2h5.4l0.1-3.2v-0.1c0,0,0-1.1,0.8-2c0.6-0.6,1.6-1,2.9-1.1V46c-2.9,0.2-5.2,1.1-6.8,2.8
		C46.9,51.1,46.8,53.9,46.8,54.6L46.8,54.6z M46.8,54.6"/>
	<path fill="#0F4584" d="M46.2,80.4l5.4,0.1L52,63.2h-5.4L46.2,80.4z M46.2,80.4"/>
	<path fill="#0F4584" d="M89.5,41.1c0,4.1-3.3,4.8-4.4,4.8h-1v5.4h1.1l0.1,0c3.9-0.2,9.6-3.1,9.6-10.2v-0.5h-5.4V41.1z M89.5,41.1"
		/>
	<path fill="#0F4584" d="M89.5,11.5h5.4v23.7h-5.4V11.5z"/>
	<path fill="#0F4584" d="M89.5,36.3h-3.2v3.2h10.8v-3.2h-2.2H89.5z M89.5,36.3"/>
	<path fill="#0F4584" d="M79.8,46v8.6H83V43.8h-3.2V46z M79.8,46"/>
	<path fill="#0F4584" d="M57.1,46v8.6h3.2V43.8h-3.2V46z M57.1,46"/>
	<path fill="#0F4584" d="M46.7,58.9h-2.6v3.2h10.8v-3.2h-2.8H46.7z M46.7,58.9"/>
</g>
</svg>
