<?xml version="1.0" encoding="utf-8"?>
<!-- Generator: Adobe Illustrator 18.0.0, SVG Export Plug-In . SVG Version: 6.00 Build 0)  -->
<!DOCTYPE svg PUBLIC "-//W3C//DTD SVG 1.1//EN" "http://www.w3.org/Graphics/SVG/1.1/DTD/svg11.dtd">
<svg version="1.1" id="Camada_1" xmlns="http://www.w3.org/2000/svg" xmlns:xlink="http://www.w3.org/1999/xlink" x="0px" y="0px"
	 viewBox="0 0 213.5 56.9" enable-background="new 0 0 213.5 56.9" xml:space="preserve">
<path fill="#0F4584" d="M23.5,50.4c-0.4,0.6-1,0.9-1.7,1l-8.7,0.7c-0.4,0.1-0.9,0-1.3-0.1c-0.5-0.1-0.9-0.3-1.3-0.5
	c0,0-0.1-0.1-0.2-0.2c-0.1-0.1-0.3-0.2-0.5-0.4c-0.5-0.4-1.1-1.1-2-2.1c-0.9-1-1.8-2.4-2.8-4.3c-1-1.8-1.9-4.1-2.7-6.9
	c-0.8-2.8-1.4-6.1-1.7-10c-0.3-3-0.4-5.8-0.2-8.2c0.2-2.4,0.4-4.5,0.8-6.4c0.4-1.8,0.9-3.4,1.4-4.7c0.5-1.3,1.1-2.4,1.6-3.2
	c0.5-0.9,1-1.5,1.3-1.9s0.6-0.6,0.6-0.7c0.3-0.3,0.7-0.5,1.2-0.7c0.5-0.2,0.9-0.3,1.3-0.3l8.7-0.8c0.6-0.1,1.1,0.1,1.6,0.5
	c0.3,0.3,0.5,0.6,0.6,1c0.1,0.4,0.1,0.8,0.1,1.2l-2.3,10.5c-0.1,0.6-0.4,1-0.9,1.4c-0.5,0.4-1,0.6-1.6,0.6l-3.2,0.3
	c-0.1,0-0.2,0.1-0.3,0.1c-0.1,0.1-0.2,0.2-0.3,0.2c-0.3,0.6-0.6,1.3-0.8,2.3c-0.2,0.8-0.3,1.9-0.4,3.2c-0.1,1.3,0,3,0.2,5
	c0.2,2,0.4,3.6,0.7,4.9c0.3,1.3,0.6,2.3,1,3.1c0.3,0.8,0.6,1.3,0.9,1.6l0.4,0.5c0,0,0.1,0.1,0.3,0.1c0.1,0.1,0.2,0.1,0.3,0.1
	l3.8-0.4c0.7,0,1.4,0.2,2,0.7c0.4,0.3,0.7,0.7,0.8,1l0,0l3.5,9.8C23.8,49.2,23.8,49.8,23.5,50.4z"/>
<path fill="none" stroke="#0F4584" stroke-miterlimit="10" d="M13.4,55.1l1.6-1.4c1.3-1.1,2.4-2.7,3.9-1.2c1.2,1.2,2.1,2,2.8,2.6
	c1,0.9,4.1,1.4,5.3,0.9l7.6-4.8"/>
<g>
	<path fill="#104584" d="M37.1,1h12.1v2.3h-8.4V6h7.9v2.3h-7.9v4.9h-3.7V1z"/>
	<path fill="#104584" d="M59,10.7h-6.2l-1.1,2.5h-4l6-12.2h4.4l6,12.2h-4L59,10.7z M55.8,3.7l-2.1,4.8H58L55.8,3.7z"/>
	<path fill="#104584" d="M64.1,1h3.7v9.8h8.3v2.4h-12V1z"/>
	<path fill="#104584" d="M76.9,1h12.7v2.3h-9v2.5h8.5v2.2h-8.5v2.8h9.1v2.3H76.9V1z"/>
	<path fill="#104584" d="M108.2,5.6c-0.2-0.9-0.6-1.5-1.3-2S105.4,3,104.4,3c-0.8,0-1.5,0.1-2.1,0.4c-0.6,0.3-1,0.6-1.3,1
		c-0.3,0.4-0.5,0.9-0.7,1.3c-0.1,0.5-0.2,0.9-0.2,1.4c0,0.5,0.1,0.9,0.2,1.4c0.1,0.5,0.3,0.9,0.7,1.3c0.3,0.4,0.7,0.8,1.3,1
		c0.6,0.3,1.3,0.4,2.1,0.4c1,0,1.8-0.2,2.5-0.7c0.7-0.4,1.2-1.1,1.3-2h4c-0.1,0.9-0.4,1.6-0.8,2.3c-0.4,0.6-1,1.2-1.7,1.6
		c-0.7,0.4-1.5,0.7-2.4,0.9c-0.9,0.2-1.9,0.3-3,0.3c-1.3,0-2.4-0.1-3.4-0.4c-1-0.3-1.8-0.6-2.5-1.2c-0.7-0.5-1.2-1.2-1.6-2
		c-0.4-0.8-0.6-1.8-0.6-2.9c0-1.1,0.2-2.1,0.6-2.9c0.4-0.8,0.9-1.5,1.6-2c0.7-0.5,1.5-0.9,2.5-1.2c1-0.3,2.1-0.4,3.4-0.4
		c0.9,0,1.8,0.1,2.7,0.2s1.7,0.4,2.4,0.7c0.8,0.4,1.4,0.9,1.9,1.5c0.5,0.7,0.8,1.5,1,2.5H108.2z"/>
	<path fill="#104584" d="M112.6,4.9c0.2-0.7,0.6-1.4,1.2-2.1c0.6-0.6,1.5-1.2,2.6-1.6c1.1-0.4,2.6-0.6,4.3-0.6s3.2,0.2,4.3,0.6
		s2,0.9,2.6,1.6c0.6,0.6,1,1.3,1.2,2.1s0.3,1.5,0.3,2.2c0,0.8-0.1,1.5-0.3,2.2c-0.2,0.7-0.6,1.4-1.2,2.1c-0.6,0.6-1.5,1.2-2.6,1.6
		c-1.1,0.4-2.6,0.6-4.3,0.6s-3.2-0.2-4.3-0.6c-1.1-0.4-2-0.9-2.6-1.6c-0.6-0.6-1-1.3-1.2-2.1c-0.2-0.7-0.3-1.5-0.3-2.2
		C112.3,6.4,112.4,5.6,112.6,4.9z M116.5,8.6c0.2,0.5,0.4,0.9,0.8,1.3c0.4,0.4,0.8,0.7,1.4,1s1.3,0.4,2.1,0.4s1.5-0.1,2.1-0.4
		c0.6-0.2,1.1-0.6,1.4-1c0.4-0.4,0.6-0.8,0.8-1.3c0.2-0.5,0.2-1,0.2-1.5c0-0.5-0.1-1-0.2-1.5c-0.2-0.5-0.4-0.9-0.8-1.3
		s-0.8-0.7-1.4-1c-0.6-0.2-1.3-0.4-2.1-0.4s-1.5,0.1-2.1,0.4s-1.1,0.6-1.4,1s-0.6,0.8-0.8,1.3s-0.2,1-0.2,1.5
		C116.2,7.6,116.3,8.1,116.5,8.6z"/>
	<path fill="#104584" d="M141.5,1h3.6v12.2h-4l-7.4-8.5h0v8.5H130V1h4.3l7.1,8.5h0V1z"/>
	<path fill="#104584" d="M146.3,4.9c0.2-0.7,0.6-1.4,1.2-2.1c0.6-0.6,1.5-1.2,2.6-1.6c1.1-0.4,2.6-0.6,4.3-0.6s3.2,0.2,4.3,0.6
		s2,0.9,2.6,1.6c0.6,0.6,1,1.3,1.2,2.1s0.3,1.5,0.3,2.2c0,0.8-0.1,1.5-0.3,2.2c-0.2,0.7-0.6,1.4-1.2,2.1c-0.6,0.6-1.5,1.2-2.6,1.6
		c-1.1,0.4-2.6,0.6-4.3,0.6s-3.2-0.2-4.3-0.6c-1.1-0.4-2-0.9-2.6-1.6c-0.6-0.6-1-1.3-1.2-2.1c-0.2-0.7-0.3-1.5-0.3-2.2
		C145.9,6.4,146,5.6,146.3,4.9z M150.1,8.6c0.2,0.5,0.4,0.9,0.8,1.3c0.4,0.4,0.8,0.7,1.4,1c0.6,0.2,1.3,0.4,2.1,0.4s1.5-0.1,2.1-0.4
		c0.6-0.2,1.1-0.6,1.4-1c0.4-0.4,0.6-0.8,0.8-1.3c0.2-0.5,0.2-1,0.2-1.5c0-0.5-0.1-1-0.2-1.5c-0.2-0.5-0.4-0.9-0.8-1.3
		s-0.8-0.7-1.4-1c-0.6-0.2-1.3-0.4-2.1-0.4s-1.5,0.1-2.1,0.4c-0.6,0.2-1.1,0.6-1.4,1c-0.4,0.4-0.6,0.8-0.8,1.3
		c-0.2,0.5-0.2,1-0.2,1.5C149.8,7.6,149.9,8.1,150.1,8.6z"/>
	<path fill="#104584" d="M172.9,4.6c-0.1-0.4-0.2-0.7-0.4-0.9c-0.2-0.2-0.5-0.4-0.8-0.5c-0.3-0.1-0.7-0.2-1-0.2
		c-0.4,0-0.8-0.1-1.2-0.1c-0.7,0-1.4,0.1-1.8,0.4c-0.5,0.3-0.7,0.6-0.7,1c0,0.3,0.1,0.6,0.4,0.8c0.3,0.2,0.7,0.3,1.1,0.4l4.6,0.7
		c0.7,0.1,1.3,0.2,1.8,0.4c0.5,0.2,1,0.4,1.3,0.6c0.4,0.3,0.7,0.6,0.9,1c0.2,0.4,0.3,0.9,0.3,1.4c0,0.6-0.1,1.1-0.4,1.6
		c-0.2,0.5-0.6,0.9-1.2,1.3c-0.6,0.4-1.3,0.7-2.2,0.9c-0.9,0.2-2,0.3-3.3,0.3c-1,0-1.9,0-2.8-0.1c-0.8-0.1-1.6-0.3-2.4-0.6
		c-0.7-0.3-1.3-0.7-1.8-1.3s-0.7-1.3-0.7-2.2h4.1c0,0.4,0.1,0.7,0.3,1c0.2,0.3,0.5,0.5,0.8,0.6c0.3,0.1,0.7,0.2,1.1,0.3
		c0.4,0.1,0.8,0.1,1.3,0.1c0.9,0,1.6-0.1,2.1-0.4c0.5-0.3,0.8-0.6,0.8-1.1c0-0.4-0.2-0.8-0.5-0.9c-0.4-0.2-0.9-0.3-1.8-0.5L167.7,8
		c-0.7-0.1-1.3-0.2-1.8-0.4s-1-0.3-1.4-0.6c-0.4-0.3-0.8-0.6-1-1S163,5.1,163,4.5c0-1.3,0.6-2.3,1.7-2.9c1.1-0.6,2.8-0.9,5-0.9
		c0.8,0,1.6,0,2.4,0.1c0.8,0.1,1.5,0.3,2.2,0.5c0.7,0.3,1.3,0.7,1.8,1.2s0.7,1.2,0.8,2H172.9z"/>
	<path fill="#104584" d="M189.7,5.6c-0.2-0.9-0.6-1.5-1.3-2c-0.7-0.5-1.6-0.7-2.6-0.7c-0.8,0-1.5,0.1-2.1,0.4c-0.6,0.3-1,0.6-1.3,1
		c-0.3,0.4-0.5,0.9-0.7,1.3c-0.1,0.5-0.2,0.9-0.2,1.4c0,0.5,0.1,0.9,0.2,1.4c0.1,0.5,0.3,0.9,0.7,1.3c0.3,0.4,0.7,0.8,1.3,1
		c0.6,0.3,1.3,0.4,2.1,0.4c1,0,1.8-0.2,2.5-0.7c0.7-0.4,1.2-1.1,1.3-2h4c-0.1,0.9-0.4,1.6-0.8,2.3c-0.4,0.6-1,1.2-1.7,1.6
		c-0.7,0.4-1.5,0.7-2.4,0.9c-0.9,0.2-1.9,0.3-3,0.3c-1.3,0-2.4-0.1-3.4-0.4c-1-0.3-1.8-0.6-2.5-1.2c-0.7-0.5-1.2-1.2-1.6-2
		c-0.4-0.8-0.6-1.8-0.6-2.9c0-1.1,0.2-2.1,0.6-2.9c0.4-0.8,0.9-1.5,1.6-2c0.7-0.5,1.5-0.9,2.5-1.2c1-0.3,2.1-0.4,3.4-0.4
		c0.9,0,1.8,0.1,2.7,0.2s1.7,0.4,2.4,0.7c0.8,0.4,1.4,0.9,1.9,1.5c0.5,0.7,0.8,1.5,1,2.5H189.7z"/>
	<path fill="#104584" d="M194.1,4.9c0.2-0.7,0.6-1.4,1.2-2.1c0.6-0.6,1.5-1.2,2.6-1.6s2.6-0.6,4.3-0.6s3.2,0.2,4.3,0.6
		c1.1,0.4,2,0.9,2.6,1.6c0.6,0.6,1,1.3,1.2,2.1s0.3,1.5,0.3,2.2c0,0.8-0.1,1.5-0.3,2.2c-0.2,0.7-0.6,1.4-1.2,2.1
		c-0.6,0.6-1.5,1.2-2.6,1.6c-1.1,0.4-2.6,0.6-4.3,0.6s-3.2-0.2-4.3-0.6c-1.1-0.4-2-0.9-2.6-1.6c-0.6-0.6-1-1.3-1.2-2.1
		c-0.2-0.7-0.3-1.5-0.3-2.2C193.7,6.4,193.8,5.6,194.1,4.9z M197.9,8.6c0.2,0.5,0.4,0.9,0.8,1.3c0.4,0.4,0.8,0.7,1.4,1
		c0.6,0.2,1.3,0.4,2.1,0.4c0.8,0,1.5-0.1,2.1-0.4s1.1-0.6,1.4-1c0.4-0.4,0.6-0.8,0.8-1.3c0.2-0.5,0.2-1,0.2-1.5c0-0.5-0.1-1-0.2-1.5
		c-0.2-0.5-0.4-0.9-0.8-1.3c-0.4-0.4-0.8-0.7-1.4-1S203,3,202.2,3c-0.8,0-1.5,0.1-2.1,0.4c-0.6,0.2-1.1,0.6-1.4,1
		c-0.4,0.4-0.6,0.8-0.8,1.3c-0.2,0.5-0.2,1-0.2,1.5C197.7,7.6,197.7,8.1,197.9,8.6z"/>
</g>
</svg>
