<?xml version="1.0" encoding="utf-8"?>
<!-- Generator: Adobe Illustrator 18.0.0, SVG Export Plug-In . SVG Version: 6.00 Build 0)  -->
<!DOCTYPE svg PUBLIC "-//W3C//DTD SVG 1.1//EN" "http://www.w3.org/Graphics/SVG/1.1/DTD/svg11.dtd">
<svg version="1.1" id="Camada_1" xmlns="http://www.w3.org/2000/svg" xmlns:xlink="http://www.w3.org/1999/xlink" x="0px" y="0px"
	 viewBox="0 0 141.2 130.2" enable-background="new 0 0 141.2 130.2" xml:space="preserve">
<path fill="#FFFFFF" stroke="#0F4584" stroke-width="4" stroke-miterlimit="10" d="M121.2,94.2H19.8c-3.9,0-7.1-3.2-7.1-7.1v-76
	c0-3.9,3.2-7.1,7.1-7.1h101.5c3.9,0,7.1,3.2,7.1,7.1v76C128.3,91,125.2,94.2,121.2,94.2z"/>
<path fill="#0F4584" d="M105,50.6v-1.8L92.6,48v-3.3L79.2,29.6L67,42.8l-29,2.7v24l10.8,1v-9.7l5.2,0.1V71l11.9,1.1l38.2-3.6V51.2
	l-11.4-0.6l0-0.6L105,50.6z M44.8,58.2h-4.4V54l4.4-0.1V58.2z M40.3,47.1l4.4-0.4v4.4l-4.4,0.2V47.1z M40.3,61l4.4,0.1v4.4l-4.4-0.3
	V61z M48.8,46.2l5-0.5v4.7l-5,0.3V46.2z M53.9,58.2h-5v-4.5l5-0.2V58.2z M90.1,58.2h-4v-4.5l4,0.1V58.2z M90.2,60.9v4.4l-4,0.2v-4.5
	L90.2,60.9z M90.2,51.1l-4-0.2v-4.5l4,0.4V51.1z M77.8,61.1l4.5-0.1v4.6l-4.5,0.3V61.1z M77.7,58.2v-4.8l4.5,0.2v4.6H77.7z
	 M77.8,50.3v-4.8l4.5,0.4v4.6L77.8,50.3z M68.9,61.3l5.1-0.1v4.9l-5.1,0.3V61.3z M73.9,58.2h-5.1v-5.1l5.1,0.2V58.2z M68.9,44.7
	l5.1,0.5v4.9l-5.1-0.3V44.7z M93.3,60.8l3.5-0.1v4.1L93.3,65V60.8z M93.3,58.2v-4.2l3.5,0.1v4.1H93.3z M63.3,58.1h-5.7v-4.8l5.7-0.2
	V58.1z M63.2,61.4v5l-5.7-0.3v-4.8L63.2,61.4z M57.5,45.4l5.7-0.5v5l-5.7,0.3V45.4z M102.7,64.5l-3.2,0.2v-4l3.2-0.1V64.5z
	 M102.7,58.2h-3.2v-4l3.2,0.1V58.2z M102.7,58.2"/>
<path fill="#0F4584" d="M79.2,28.6l14,15.8l2.2,0L79.9,27.2L45,34.6L36,43.1v2l30.7-2.8L79.2,28.6z M79.2,28.6"/>
<g>
	<path fill="#104584" d="M10.7,122.5L10.7,122.5c0,1.2-0.3,2.1-1,2.8c-0.7,0.7-1.7,1-3,1c-1.3,0-2.3-0.4-3.1-1.2
		c-0.8-0.8-1.2-1.9-1.2-3.2v-2.1c0-1.3,0.4-2.4,1.2-3.2c0.8-0.8,1.8-1.2,3-1.2c1.3,0,2.3,0.3,3.1,1c0.7,0.7,1.1,1.6,1.1,2.8l0,0H8.6
		c0-0.7-0.2-1.2-0.5-1.6c-0.3-0.4-0.9-0.6-1.6-0.6c-0.6,0-1.1,0.3-1.5,0.8c-0.4,0.5-0.6,1.2-0.6,2v2.1c0,0.8,0.2,1.5,0.6,2
		c0.4,0.5,0.9,0.8,1.6,0.8c0.7,0,1.2-0.2,1.5-0.5c0.3-0.4,0.5-0.9,0.5-1.6H10.7z"/>
	<path fill="#104584" d="M20.7,121.7c0,1.3-0.4,2.4-1.2,3.2c-0.8,0.9-1.9,1.3-3.2,1.3c-1.3,0-2.4-0.4-3.2-1.3s-1.2-1.9-1.2-3.2v-1.9
		c0-1.3,0.4-2.4,1.2-3.2c0.8-0.9,1.9-1.3,3.2-1.3c1.3,0,2.4,0.4,3.2,1.3c0.8,0.9,1.2,1.9,1.2,3.2V121.7z M18.5,119.8
		c0-0.8-0.2-1.5-0.6-2s-1-0.8-1.7-0.8s-1.3,0.3-1.7,0.8c-0.4,0.5-0.6,1.2-0.6,2.1v1.9c0,0.8,0.2,1.5,0.6,2.1s1,0.8,1.7,0.8
		c0.7,0,1.3-0.3,1.7-0.8s0.6-1.2,0.6-2.1V119.8z"/>
	<path fill="#104584" d="M30.8,126.1h-2.1l-4.3-7.3l0,0v7.3h-2.1v-10.7h2.1l4.3,7.3l0,0v-7.3h2.1V126.1z"/>
	<path fill="#104584" d="M38.4,123.3c0-0.4-0.1-0.7-0.4-1c-0.3-0.2-0.8-0.5-1.5-0.7c-1.3-0.4-2.2-0.8-2.9-1.3c-0.7-0.5-1-1.2-1-2.1
		s0.4-1.6,1.1-2.1c0.7-0.6,1.7-0.8,2.9-0.8c1.2,0,2.1,0.3,2.9,0.9c0.7,0.6,1.1,1.4,1.1,2.3l0,0h-2.1c0-0.5-0.2-0.9-0.5-1.2
		c-0.3-0.3-0.8-0.5-1.4-0.5c-0.6,0-1,0.1-1.3,0.4s-0.5,0.6-0.5,1c0,0.4,0.2,0.7,0.5,0.9c0.3,0.2,0.9,0.5,1.7,0.7
		c1.2,0.3,2.1,0.8,2.7,1.3s0.9,1.2,0.9,2.1c0,0.9-0.4,1.6-1.1,2.2c-0.7,0.5-1.7,0.8-2.9,0.8c-1.2,0-2.2-0.3-3-0.9s-1.3-1.4-1.3-2.5
		l0,0h2.1c0,0.6,0.2,1.1,0.6,1.4c0.4,0.3,0.9,0.4,1.6,0.4c0.6,0,1-0.1,1.3-0.4C38.3,124.1,38.4,123.7,38.4,123.3z"/>
	<path fill="#104584" d="M49.4,117.1h-3v9h-2.1v-9h-3v-1.6h8.2V117.1z"/>
	<path fill="#104584" d="M52.6,121.9v4.3h-2.1v-10.7h4c1.2,0,2.2,0.3,2.9,0.8c0.7,0.6,1,1.3,1,2.3c0,0.6-0.1,1-0.4,1.4
		s-0.7,0.7-1.3,1c0.6,0.2,1.1,0.5,1.4,0.9c0.3,0.4,0.4,1,0.4,1.6v0.8c0,0.3,0,0.6,0.1,0.9c0.1,0.3,0.2,0.6,0.4,0.7v0.2h-2.2
		c-0.2-0.2-0.3-0.4-0.4-0.8s-0.1-0.7-0.1-1v-0.8c0-0.5-0.1-0.9-0.4-1.2c-0.3-0.3-0.7-0.4-1.2-0.4H52.6z M52.6,120.2h1.8
		c0.6,0,1-0.1,1.3-0.4c0.3-0.3,0.4-0.6,0.4-1.1c0-0.5-0.1-0.9-0.4-1.2c-0.3-0.3-0.7-0.4-1.3-0.4h-1.9V120.2z"/>
	<path fill="#104584" d="M68.6,115.5v7.1c0,1.2-0.4,2.1-1.2,2.8s-1.8,1-3.1,1c-1.3,0-2.3-0.3-3.1-1c-0.8-0.6-1.2-1.6-1.2-2.8v-7.1
		h2.1v7.1c0,0.7,0.2,1.2,0.6,1.6c0.4,0.3,0.9,0.5,1.6,0.5c0.7,0,1.2-0.2,1.6-0.5c0.4-0.3,0.6-0.9,0.6-1.6v-7.1H68.6z"/>
	<path fill="#104584" d="M78.4,122.5L78.4,122.5c0,1.2-0.3,2.1-1,2.8c-0.7,0.7-1.7,1-3,1c-1.3,0-2.3-0.4-3.1-1.2
		c-0.8-0.8-1.2-1.9-1.2-3.2v-2.1c0-1.3,0.4-2.4,1.2-3.2c0.8-0.8,1.8-1.2,3-1.2c1.3,0,2.3,0.3,3.1,1c0.7,0.7,1.1,1.6,1.1,2.8l0,0
		h-2.1c0-0.7-0.2-1.2-0.5-1.6c-0.3-0.4-0.9-0.6-1.6-0.6c-0.6,0-1.1,0.3-1.5,0.8c-0.4,0.5-0.6,1.2-0.6,2v2.1c0,0.8,0.2,1.5,0.6,2
		c0.4,0.5,0.9,0.8,1.6,0.8c0.7,0,1.2-0.2,1.5-0.5c0.3-0.4,0.5-0.9,0.5-1.6H78.4z M75,126.1l-0.1,0.4c0.3,0.1,0.6,0.2,0.8,0.4
		c0.2,0.2,0.3,0.5,0.3,0.9c0,0.5-0.2,0.9-0.7,1.3c-0.4,0.3-1.1,0.5-1.9,0.5l-0.1-1.2c0.3,0,0.4,0,0.6-0.1c0.1-0.1,0.2-0.3,0.2-0.5
		c0-0.2-0.1-0.3-0.2-0.4c-0.2-0.1-0.4-0.1-0.8-0.2l0.2-1H75z"/>
	<path fill="#104584" d="M85.5,123.8h-3.7l-0.7,2.3h-2.2l3.7-10.7h2.2l3.7,10.7h-2.2L85.5,123.8z M86.3,112.5c0,0.5-0.1,0.9-0.4,1.2
		c-0.3,0.3-0.7,0.5-1.1,0.5c-0.3,0-0.7-0.1-1.2-0.3c-0.4-0.2-0.8-0.3-1-0.3c-0.2,0-0.3,0.1-0.4,0.2s-0.2,0.3-0.2,0.6l-1.1-0.3
		c0-0.5,0.1-0.9,0.4-1.2c0.3-0.3,0.7-0.5,1.1-0.5c0.3,0,0.6,0.1,1.1,0.3c0.5,0.2,0.8,0.3,1.1,0.3c0.2,0,0.3-0.1,0.4-0.2
		s0.2-0.3,0.2-0.6L86.3,112.5z M82.3,122.1H85l-1.3-4.2h0L82.3,122.1z"/>
	<path fill="#104584" d="M97.8,121.7c0,1.3-0.4,2.4-1.2,3.2c-0.8,0.9-1.9,1.3-3.2,1.3c-1.3,0-2.4-0.4-3.2-1.3s-1.2-1.9-1.2-3.2v-1.9
		c0-1.3,0.4-2.4,1.2-3.2c0.8-0.9,1.9-1.3,3.2-1.3c1.3,0,2.4,0.4,3.2,1.3c0.8,0.9,1.2,1.9,1.2,3.2V121.7z M95.7,119.8
		c0-0.8-0.2-1.5-0.6-2s-1-0.8-1.7-0.8s-1.3,0.3-1.7,0.8c-0.4,0.5-0.6,1.2-0.6,2.1v1.9c0,0.8,0.2,1.5,0.6,2.1s1,0.8,1.7,0.8
		c0.7,0,1.3-0.3,1.7-0.8s0.6-1.2,0.6-2.1V119.8z"/>
	<path fill="#104584" d="M111,122.5L111,122.5c0,1.2-0.3,2.1-1,2.8c-0.7,0.7-1.7,1-3,1c-1.3,0-2.3-0.4-3.1-1.2
		c-0.8-0.8-1.2-1.9-1.2-3.2v-2.1c0-1.3,0.4-2.4,1.2-3.2c0.8-0.8,1.8-1.2,3-1.2c1.3,0,2.3,0.3,3.1,1c0.7,0.7,1.1,1.6,1.1,2.8l0,0
		h-2.1c0-0.7-0.2-1.2-0.5-1.6c-0.3-0.4-0.9-0.6-1.6-0.6c-0.6,0-1.1,0.3-1.5,0.8c-0.4,0.5-0.6,1.2-0.6,2v2.1c0,0.8,0.2,1.5,0.6,2
		c0.4,0.5,0.9,0.8,1.6,0.8c0.7,0,1.2-0.2,1.5-0.5c0.3-0.4,0.5-0.9,0.5-1.6H111z"/>
	<path fill="#104584" d="M114.6,126.1h-2.1v-10.7h2.1V126.1z"/>
	<path fill="#104584" d="M120.2,123.3l0.1,0.6h0l0.1-0.6l2.3-7.8h2.3l-3.6,10.7h-2.2l-3.6-10.7h2.3L120.2,123.3z"/>
	<path fill="#104584" d="M128.3,126.1h-2.1v-10.7h2.1V126.1z"/>
	<path fill="#104584" d="M132.4,124.5h4.7v1.6h-6.9v-10.7h2.1V124.5z"/>
</g>
</svg>
