<?xml version="1.0" encoding="utf-8"?>
<!-- Generator: Adobe Illustrator 18.0.0, SVG Export Plug-In . SVG Version: 6.00 Build 0)  -->
<!DOCTYPE svg PUBLIC "-//W3C//DTD SVG 1.1//EN" "http://www.w3.org/Graphics/SVG/1.1/DTD/svg11.dtd">
<svg version="1.1" id="Camada_1" xmlns="http://www.w3.org/2000/svg" xmlns:xlink="http://www.w3.org/1999/xlink" x="0px" y="0px"
	 viewBox="0 0 141.2 130.2" enable-background="new 0 0 141.2 130.2" xml:space="preserve">
<path fill="#FFFFFF" stroke="#0F4584" stroke-width="4" stroke-miterlimit="10" d="M121.3,94.2H19.8c-3.9,0-7.1-3.2-7.1-7.1v-76
	c0-3.9,3.2-7.1,7.1-7.1h101.5c3.9,0,7.1,3.2,7.1,7.1v76C128.4,91,125.2,94.2,121.3,94.2z"/>
<g>
	<path fill="#124485" d="M32.1,115.5l2.7,7.9h0l2.7-7.9h2.8v10.7h-2.1v-3.2l0.2-4.7l0,0l-2.9,7.9h-1.4l-2.8-7.9l0,0l0.2,4.7v3.2
		h-2.1v-10.7H32.1z"/>
	<path fill="#124485" d="M44.5,126.1h-2.1v-10.7h2.1V126.1z"/>
	<path fill="#124485" d="M55.2,126.1H53l-4.3-7.3l0,0v7.3h-2.1v-10.7h2.1l4.3,7.3l0,0v-7.3h2.1V126.1z"/>
	<path fill="#124485" d="M63.6,121.4h-4.4v3h5.2v1.6H57v-10.7h7.3v1.6h-5.1v2.7h4.4V121.4z"/>
	<path fill="#124485" d="M67.6,121.9v4.3h-2.1v-10.7h4c1.2,0,2.2,0.3,2.9,0.8c0.7,0.6,1,1.3,1,2.3c0,0.6-0.1,1-0.4,1.4
		s-0.7,0.7-1.3,1c0.6,0.2,1.1,0.5,1.4,0.9c0.3,0.4,0.4,1,0.4,1.6v0.8c0,0.3,0,0.6,0.1,0.9c0.1,0.3,0.2,0.6,0.4,0.7v0.2h-2.2
		c-0.2-0.2-0.3-0.4-0.4-0.8s-0.1-0.7-0.1-1v-0.8c0-0.5-0.1-0.9-0.4-1.2c-0.3-0.3-0.7-0.4-1.2-0.4H67.6z M67.6,120.2h1.8
		c0.6,0,1-0.1,1.3-0.4c0.3-0.3,0.4-0.6,0.4-1.1c0-0.5-0.1-0.9-0.4-1.2c-0.3-0.3-0.7-0.4-1.3-0.4h-1.9V120.2z"/>
	<path fill="#124485" d="M81,123.8h-3.7l-0.7,2.3h-2.2l3.7-10.7h2.2l3.7,10.7h-2.2L81,123.8z M77.7,122.1h2.7l-1.3-4.2h0L77.7,122.1
		z"/>
	<path fill="#124485" d="M92.7,122.5L92.7,122.5c0,1.2-0.3,2.1-1,2.8c-0.7,0.7-1.7,1-3,1c-1.3,0-2.3-0.4-3.1-1.2
		c-0.8-0.8-1.2-1.9-1.2-3.2v-2.1c0-1.3,0.4-2.4,1.2-3.2c0.8-0.8,1.8-1.2,3-1.2c1.3,0,2.3,0.3,3.1,1c0.7,0.7,1.1,1.6,1.1,2.8l0,0
		h-2.1c0-0.7-0.2-1.2-0.5-1.6c-0.3-0.4-0.9-0.6-1.6-0.6c-0.6,0-1.1,0.3-1.5,0.8c-0.4,0.5-0.6,1.2-0.6,2v2.1c0,0.8,0.2,1.5,0.6,2
		c0.4,0.5,0.9,0.8,1.6,0.8c0.7,0,1.2-0.2,1.5-0.5c0.3-0.4,0.5-0.9,0.5-1.6H92.7z M89.4,126.1l-0.1,0.4c0.3,0.1,0.6,0.2,0.8,0.4
		c0.2,0.2,0.3,0.5,0.3,0.9c0,0.5-0.2,0.9-0.7,1.3c-0.4,0.3-1.1,0.5-1.9,0.5l-0.1-1.2c0.3,0,0.4,0,0.6-0.1c0.1-0.1,0.2-0.3,0.2-0.5
		c0-0.2-0.1-0.3-0.2-0.4c-0.2-0.1-0.4-0.1-0.8-0.2l0.2-1H89.4z"/>
	<path fill="#124485" d="M99.8,123.8h-3.7l-0.7,2.3h-2.2l3.7-10.7h2.2l3.7,10.7h-2.2L99.8,123.8z M100.7,112.5
		c0,0.5-0.1,0.9-0.4,1.2c-0.3,0.3-0.7,0.5-1.1,0.5c-0.3,0-0.7-0.1-1.2-0.3c-0.4-0.2-0.8-0.3-1-0.3c-0.2,0-0.3,0.1-0.4,0.2
		s-0.2,0.3-0.2,0.6l-1.1-0.3c0-0.5,0.1-0.9,0.4-1.2c0.3-0.3,0.7-0.5,1.1-0.5c0.3,0,0.6,0.1,1.1,0.3c0.5,0.2,0.8,0.3,1.1,0.3
		c0.2,0,0.3-0.1,0.4-0.2s0.2-0.3,0.2-0.6L100.7,112.5z M96.6,122.1h2.7L98,118h0L96.6,122.1z"/>
	<path fill="#124485" d="M112.1,121.7c0,1.3-0.4,2.4-1.2,3.2c-0.8,0.9-1.9,1.3-3.2,1.3c-1.3,0-2.4-0.4-3.2-1.3s-1.2-1.9-1.2-3.2
		v-1.9c0-1.3,0.4-2.4,1.2-3.2c0.8-0.9,1.9-1.3,3.2-1.3c1.3,0,2.4,0.4,3.2,1.3c0.8,0.9,1.2,1.9,1.2,3.2V121.7z M110,119.8
		c0-0.8-0.2-1.5-0.6-2s-1-0.8-1.7-0.8s-1.3,0.3-1.7,0.8c-0.4,0.5-0.6,1.2-0.6,2.1v1.9c0,0.8,0.2,1.5,0.6,2.1s1,0.8,1.7,0.8
		c0.7,0,1.3-0.3,1.7-0.8s0.6-1.2,0.6-2.1V119.8z"/>
</g>
<g>
	<path fill="#0F4783" d="M58,69.2c0-6.1-5-11.1-11.1-11.1c-6.1,0-11.1,5-11.1,11.1c0,6.1,5,11.1,11.1,11.1
		C53.1,80.3,58,75.4,58,69.2L58,69.2z M43.3,69.2c0-2,1.6-3.7,3.7-3.7c2,0,3.7,1.6,3.7,3.7c0,2-1.6,3.7-3.7,3.7
		C44.9,72.9,43.3,71.3,43.3,69.2L43.3,69.2z M43.3,69.2"/>
	<path fill="#0F4783" d="M84.4,31.9v22.6c0,0,0.6-0.2,3.7-0.2c6.8,0,10.3,3.3,11.9,5.9c0.9-0.9,2.1-1.5,3.4-1.5h11.1V42.2l-6.7-10.3
		H84.4z M109.8,49.3H97.1V36.7h9.5l3.2,5V49.3z M109.8,49.3"/>
	<path fill="#0F4783" d="M32.1,47.8c0,0,26.1,4.9,29.6,17.4h12c0,0,1.5-7.9,7.6-10.1V28.8h27.9l4.6-6.3H78.1l-4.4,9.5H27.4v6.3h4.7
		L32.1,47.8z M32.1,47.8"/>
	<path fill="#0F4783" d="M103.4,62c-0.7,0-1.3,0.5-1.5,1.2c0,0.1-0.1,0.2-0.1,0.4v3.2c0,0.9,0.7,1.6,1.6,1.6h11.1
		c0.9,0,1.6-0.7,1.6-1.6v-3.2c0-0.9-0.7-1.6-1.6-1.6H103.4z M103.4,62"/>
	<path fill="#0F4783" d="M99.2,69.2c0-0.2,0-0.3,0-0.4c0-1-0.2-1.9-0.5-2.8c-1.4-4.5-5.6-7.8-10.6-7.8c-6.1,0-11.1,5-11.1,11.1
		c0,6.1,5,11.1,11.1,11.1C94.2,80.3,99.2,75.4,99.2,69.2L99.2,69.2z M84.4,69.2c0-2,1.6-3.7,3.7-3.7c2,0,3.7,1.6,3.7,3.7
		c0,2-1.6,3.7-3.7,3.7C86.1,72.9,84.4,71.3,84.4,69.2L84.4,69.2z M84.4,69.2"/>
	<path fill="#0F4783" d="M74.4,21.7l-1.7-4H68l-4.2-6.3h-6.1l-6.5,7.9h-5L41.7,24h-3.4L33,28.8h38L74.4,21.7z M74.4,21.7"/>
</g>
</svg>
