<?xml version="1.0" encoding="utf-8"?>
<!-- Generator: Adobe Illustrator 18.0.0, SVG Export Plug-In . SVG Version: 6.00 Build 0)  -->
<!DOCTYPE svg PUBLIC "-//W3C//DTD SVG 1.1//EN" "http://www.w3.org/Graphics/SVG/1.1/DTD/svg11.dtd">
<svg version="1.1" id="Camada_1" xmlns="http://www.w3.org/2000/svg" xmlns:xlink="http://www.w3.org/1999/xlink" x="0px" y="0px"
	 viewBox="0 0 224.5 55" enable-background="new 0 0 224.5 55" xml:space="preserve">
<path fill="#0F4584" d="M18.5,0C8.3,0,0,8.2,0,18.2c0,4,2.6,10.6,8,20.1c3.8,6.7,7.6,12.3,7.7,12.6l2.8,4.1l2.7-4.1
	c0.2-0.2,3.9-5.8,7.7-12.6c5.4-9.5,8-16.1,8-20.1C37,8.2,28.7,0,18.5,0z M18.5,27.5c-5.3,0-9.6-4.2-9.6-9.4c0-5.2,4.3-9.4,9.6-9.4
	c5.3,0,9.6,4.2,9.6,9.4C28.1,23.3,23.8,27.5,18.5,27.5z"/>
<g>
	<path fill="#104584" d="M45.1,6.9c0.2-0.7,0.6-1.4,1.2-2.1c0.6-0.6,1.5-1.2,2.6-1.6c1.1-0.4,2.6-0.6,4.3-0.6s3.2,0.2,4.3,0.6
		c1.1,0.4,2,0.9,2.6,1.6c0.6,0.6,1,1.3,1.2,2.1c0.2,0.7,0.3,1.5,0.3,2.2s-0.1,1.5-0.3,2.2c-0.2,0.7-0.6,1.4-1.2,2.1
		c-0.6,0.6-1.5,1.2-2.6,1.6c-1.1,0.4-2.6,0.6-4.3,0.6S50,15.4,48.9,15c-1.1-0.4-2-0.9-2.6-1.6c-0.6-0.6-1-1.3-1.2-2.1
		c-0.2-0.7-0.3-1.5-0.3-2.2S44.9,7.7,45.1,6.9z M48.9,10.6c0.2,0.5,0.4,0.9,0.8,1.3s0.8,0.7,1.4,1s1.3,0.4,2.1,0.4
		c0.8,0,1.5-0.1,2.1-0.4c0.6-0.2,1.1-0.6,1.4-1c0.4-0.4,0.6-0.8,0.8-1.3c0.2-0.5,0.2-1,0.2-1.5s-0.1-1-0.2-1.5
		c-0.2-0.5-0.4-0.9-0.8-1.3c-0.4-0.4-0.8-0.7-1.4-1C54.7,5.1,54,5,53.2,5c-0.8,0-1.5,0.1-2.1,0.4s-1.1,0.6-1.4,1
		c-0.4,0.4-0.6,0.8-0.8,1.3c-0.2,0.5-0.2,1-0.2,1.5S48.8,10.1,48.9,10.6z"/>
	<path fill="#104584" d="M73.9,3h3.6v12.2h-4l-7.4-8.5h0v8.5h-3.6V3h4.3l7.1,8.5h0V3z"/>
	<path fill="#104584" d="M79.1,3h8.5c2.3,0,3.9,0.5,5,1.6c1.1,1.1,1.6,2.6,1.6,4.5c0,1.9-0.5,3.4-1.6,4.5s-2.7,1.6-4.7,1.6h-8.8V3z
		 M82.8,12.9h4.1c1.2,0,2.1-0.3,2.7-1c0.6-0.7,0.9-1.6,0.9-2.9c0-1.2-0.3-2.1-0.9-2.7s-1.6-0.9-3-0.9h-3.8V12.9z"/>
	<path fill="#104584" d="M95.4,3h12.7v2.3h-9v2.5h8.5v2.2h-8.5v2.8h9.1v2.3H95.4V3z"/>
	<path fill="#104584" d="M115.3,3H128v2.3h-9v2.5h8.5v2.2H119v2.8h9.1v2.3h-12.7V3z"/>
	<path fill="#104584" d="M138.3,6.6c-0.1-0.4-0.2-0.7-0.4-0.9s-0.5-0.4-0.8-0.5c-0.3-0.1-0.7-0.2-1-0.2c-0.4,0-0.8-0.1-1.2-0.1
		c-0.7,0-1.4,0.1-1.8,0.4c-0.5,0.3-0.7,0.6-0.7,1c0,0.3,0.1,0.6,0.4,0.8s0.7,0.3,1.1,0.4l4.6,0.7c0.7,0.1,1.3,0.2,1.8,0.4
		c0.5,0.2,1,0.4,1.3,0.6c0.4,0.3,0.7,0.6,0.9,1c0.2,0.4,0.3,0.9,0.3,1.4c0,0.6-0.1,1.1-0.4,1.6c-0.2,0.5-0.6,0.9-1.2,1.3
		c-0.6,0.4-1.3,0.7-2.2,0.9c-0.9,0.2-2,0.3-3.3,0.3c-1,0-1.9,0-2.8-0.1c-0.8-0.1-1.6-0.3-2.4-0.6c-0.7-0.3-1.3-0.7-1.8-1.3
		c-0.5-0.6-0.7-1.3-0.7-2.2h4.1c0,0.4,0.1,0.7,0.3,1c0.2,0.3,0.5,0.5,0.8,0.6s0.7,0.2,1.1,0.3c0.4,0.1,0.8,0.1,1.3,0.1
		c0.9,0,1.6-0.1,2.1-0.4c0.5-0.3,0.8-0.6,0.8-1.1c0-0.4-0.2-0.8-0.5-0.9c-0.4-0.2-0.9-0.3-1.8-0.5l-3.4-0.5
		c-0.7-0.1-1.3-0.2-1.8-0.4c-0.5-0.1-1-0.3-1.4-0.6c-0.4-0.3-0.8-0.6-1-1c-0.2-0.4-0.4-0.9-0.4-1.5c0-1.3,0.6-2.3,1.7-2.9
		c1.1-0.6,2.8-0.9,5-0.9c0.8,0,1.6,0,2.4,0.1c0.8,0.1,1.5,0.3,2.2,0.5c0.7,0.3,1.3,0.7,1.8,1.2s0.7,1.2,0.8,2H138.3z"/>
	<path fill="#104584" d="M147.4,5.4h-5V3h13.8v2.3h-5v9.9h-3.7V5.4z"/>
	<path fill="#104584" d="M165.5,12.7h-6.2l-1.1,2.5h-4l6-12.2h4.4l6,12.2h-4L165.5,12.7z M162.4,5.7l-2.1,4.8h4.3L162.4,5.7z"/>
	<path fill="#104584" d="M184.1,3h5.4v12.2H186V5.5h0l-4.3,9.8h-3.1l-4.3-9.8h0v9.8h-3.6V3h5.4l4,8.8L184.1,3z"/>
	<path fill="#104584" d="M190.8,6.9c0.2-0.7,0.6-1.4,1.2-2.1c0.6-0.6,1.5-1.2,2.6-1.6c1.1-0.4,2.6-0.6,4.3-0.6s3.2,0.2,4.3,0.6
		c1.1,0.4,2,0.9,2.6,1.6c0.6,0.6,1,1.3,1.2,2.1c0.2,0.7,0.3,1.5,0.3,2.2s-0.1,1.5-0.3,2.2c-0.2,0.7-0.6,1.4-1.2,2.1
		c-0.6,0.6-1.5,1.2-2.6,1.6c-1.1,0.4-2.6,0.6-4.3,0.6s-3.2-0.2-4.3-0.6c-1.1-0.4-2-0.9-2.6-1.6c-0.6-0.6-1-1.3-1.2-2.1
		c-0.2-0.7-0.3-1.5-0.3-2.2S190.5,7.7,190.8,6.9z M194.6,10.6c0.2,0.5,0.4,0.9,0.8,1.3s0.8,0.7,1.4,1s1.3,0.4,2.1,0.4
		c0.8,0,1.5-0.1,2.1-0.4c0.6-0.2,1.1-0.6,1.4-1c0.4-0.4,0.6-0.8,0.8-1.3c0.2-0.5,0.2-1,0.2-1.5s-0.1-1-0.2-1.5
		c-0.2-0.5-0.4-0.9-0.8-1.3c-0.4-0.4-0.8-0.7-1.4-1c-0.6-0.2-1.3-0.4-2.1-0.4c-0.8,0-1.5,0.1-2.1,0.4s-1.1,0.6-1.4,1
		c-0.4,0.4-0.6,0.8-0.8,1.3c-0.2,0.5-0.2,1-0.2,1.5S194.4,10.1,194.6,10.6z"/>
	<path fill="#104584" d="M217.3,6.6c-0.1-0.4-0.2-0.7-0.4-0.9s-0.5-0.4-0.8-0.5c-0.3-0.1-0.7-0.2-1-0.2c-0.4,0-0.8-0.1-1.2-0.1
		c-0.7,0-1.4,0.1-1.8,0.4c-0.5,0.3-0.7,0.6-0.7,1c0,0.3,0.1,0.6,0.4,0.8s0.7,0.3,1.1,0.4l4.6,0.7c0.7,0.1,1.3,0.2,1.8,0.4
		c0.5,0.2,1,0.4,1.3,0.6c0.4,0.3,0.7,0.6,0.9,1c0.2,0.4,0.3,0.9,0.3,1.4c0,0.6-0.1,1.1-0.4,1.6c-0.2,0.5-0.6,0.9-1.2,1.3
		c-0.6,0.4-1.3,0.7-2.2,0.9c-0.9,0.2-2,0.3-3.3,0.3c-1,0-1.9,0-2.8-0.1c-0.8-0.1-1.6-0.3-2.4-0.6c-0.7-0.3-1.3-0.7-1.8-1.3
		c-0.5-0.6-0.7-1.3-0.7-2.2h4.1c0,0.4,0.1,0.7,0.3,1c0.2,0.3,0.5,0.5,0.8,0.6s0.7,0.2,1.1,0.3c0.4,0.1,0.8,0.1,1.3,0.1
		c0.9,0,1.6-0.1,2.1-0.4c0.5-0.3,0.8-0.6,0.8-1.1c0-0.4-0.2-0.8-0.5-0.9c-0.4-0.2-0.9-0.3-1.8-0.5l-3.4-0.5
		c-0.7-0.1-1.3-0.2-1.8-0.4c-0.5-0.1-1-0.3-1.4-0.6c-0.4-0.3-0.8-0.6-1-1c-0.2-0.4-0.4-0.9-0.4-1.5c0-1.3,0.6-2.3,1.7-2.9
		c1.1-0.6,2.8-0.9,5-0.9c0.8,0,1.6,0,2.4,0.1c0.8,0.1,1.5,0.3,2.2,0.5c0.7,0.3,1.3,0.7,1.8,1.2s0.7,1.2,0.8,2H217.3z"/>
</g>
</svg>
