<?xml version="1.0" encoding="utf-8"?>
<!-- Generator: Adobe Illustrator 18.0.0, SVG Export Plug-In . SVG Version: 6.00 Build 0)  -->
<!DOCTYPE svg PUBLIC "-//W3C//DTD SVG 1.1//EN" "http://www.w3.org/Graphics/SVG/1.1/DTD/svg11.dtd">
<svg version="1.1" id="Camada_1" xmlns="http://www.w3.org/2000/svg" xmlns:xlink="http://www.w3.org/1999/xlink" x="0px" y="0px"
	 viewBox="0 0 141.2 130.2" enable-background="new 0 0 141.2 130.2" xml:space="preserve">
<path fill="#FFFFFF" stroke="#0F4584" stroke-width="4" stroke-miterlimit="10" d="M121.3,94.2H19.8c-3.9,0-7.1-3.2-7.1-7.1v-76
	c0-3.9,3.2-7.1,7.1-7.1h101.5c3.9,0,7.1,3.2,7.1,7.1v76C128.4,91,125.2,94.2,121.3,94.2z"/>
<g>
	<path fill="#124485" d="M42.3,122.5L42.3,122.5c0,1.2-0.3,2.1-1,2.8s-1.7,1-3,1c-1.3,0-2.3-0.4-3.1-1.2s-1.2-1.9-1.2-3.2v-2.1
		c0-1.3,0.4-2.4,1.2-3.2s1.8-1.2,3-1.2c1.3,0,2.3,0.3,3.1,1c0.7,0.7,1.1,1.6,1.1,2.8l0,0h-2.1c0-0.7-0.2-1.2-0.5-1.6
		c-0.3-0.4-0.9-0.6-1.6-0.6c-0.6,0-1.1,0.3-1.5,0.8s-0.6,1.2-0.6,2v2.1c0,0.8,0.2,1.5,0.6,2s0.9,0.8,1.6,0.8c0.7,0,1.2-0.2,1.5-0.5
		c0.3-0.4,0.5-0.9,0.5-1.6H42.3z"/>
	<path fill="#124485" d="M52.3,121.7c0,1.3-0.4,2.4-1.2,3.2c-0.8,0.9-1.9,1.3-3.2,1.3c-1.3,0-2.4-0.4-3.2-1.3s-1.2-1.9-1.2-3.2v-1.9
		c0-1.3,0.4-2.4,1.2-3.2c0.8-0.9,1.9-1.3,3.2-1.3c1.3,0,2.4,0.4,3.2,1.3c0.8,0.9,1.2,1.9,1.2,3.2V121.7z M50.1,119.8
		c0-0.8-0.2-1.5-0.6-2s-1-0.8-1.7-0.8s-1.3,0.3-1.7,0.8s-0.6,1.2-0.6,2.1v1.9c0,0.8,0.2,1.5,0.6,2.1s1,0.8,1.7,0.8
		c0.7,0,1.3-0.3,1.7-0.8s0.6-1.2,0.6-2.1V119.8z"/>
	<path fill="#124485" d="M56.6,115.5l2.7,7.9h0l2.7-7.9h2.8v10.7h-2.1v-3.2l0.2-4.7l0,0l-2.9,7.9h-1.4l-2.8-7.9l0,0l0.2,4.7v3.2
		h-2.1v-10.7H56.6z"/>
	<path fill="#124485" d="M73.3,121.4h-4.4v3H74v1.6h-7.3v-10.7H74v1.6h-5.1v2.7h4.4V121.4z M70.5,112.7h2.3l0,0l-2,1.9h-1.7
		L70.5,112.7z"/>
	<path fill="#124485" d="M77.3,121.9v4.3h-2.1v-10.7h4c1.2,0,2.2,0.3,2.9,0.8c0.7,0.6,1,1.3,1,2.3c0,0.6-0.1,1-0.4,1.4
		s-0.7,0.7-1.3,1c0.6,0.2,1.1,0.5,1.4,0.9c0.3,0.4,0.4,1,0.4,1.6v0.8c0,0.3,0,0.6,0.1,0.9c0.1,0.3,0.2,0.6,0.4,0.7v0.2h-2.2
		c-0.2-0.2-0.3-0.4-0.4-0.8s-0.1-0.7-0.1-1v-0.8c0-0.5-0.1-0.9-0.4-1.2c-0.3-0.3-0.7-0.4-1.2-0.4H77.3z M77.3,120.2h1.8
		c0.6,0,1-0.1,1.3-0.4c0.3-0.3,0.4-0.6,0.4-1.1c0-0.5-0.1-0.9-0.4-1.2c-0.3-0.3-0.7-0.4-1.3-0.4h-1.9V120.2z"/>
	<path fill="#124485" d="M93,122.5L93,122.5c0,1.2-0.3,2.1-1,2.8c-0.7,0.7-1.7,1-3,1c-1.3,0-2.3-0.4-3.1-1.2
		c-0.8-0.8-1.2-1.9-1.2-3.2v-2.1c0-1.3,0.4-2.4,1.2-3.2c0.8-0.8,1.8-1.2,3-1.2c1.3,0,2.3,0.3,3.1,1c0.7,0.7,1.1,1.6,1.1,2.8l0,0
		h-2.1c0-0.7-0.2-1.2-0.5-1.6c-0.3-0.4-0.9-0.6-1.6-0.6c-0.6,0-1.1,0.3-1.5,0.8c-0.4,0.5-0.6,1.2-0.6,2v2.1c0,0.8,0.2,1.5,0.6,2
		c0.4,0.5,0.9,0.8,1.6,0.8c0.7,0,1.2-0.2,1.5-0.5c0.3-0.4,0.5-0.9,0.5-1.6H93z"/>
	<path fill="#124485" d="M96.7,126.1h-2.1v-10.7h2.1V126.1z"/>
	<path fill="#124485" d="M107.2,121.7c0,1.3-0.4,2.4-1.2,3.2c-0.8,0.9-1.9,1.3-3.2,1.3c-1.3,0-2.4-0.4-3.2-1.3s-1.2-1.9-1.2-3.2
		v-1.9c0-1.3,0.4-2.4,1.2-3.2c0.8-0.9,1.9-1.3,3.2-1.3c1.3,0,2.4,0.4,3.2,1.3c0.8,0.9,1.2,1.9,1.2,3.2V121.7z M105.1,119.8
		c0-0.8-0.2-1.5-0.6-2s-1-0.8-1.7-0.8s-1.3,0.3-1.7,0.8c-0.4,0.5-0.6,1.2-0.6,2.1v1.9c0,0.8,0.2,1.5,0.6,2.1s1,0.8,1.7,0.8
		c0.7,0,1.3-0.3,1.7-0.8s0.6-1.2,0.6-2.1V119.8z"/>
</g>
<g>
	<path fill="#0F4783" d="M106.4,74.7H51.9V42h0.7c1,0,1.9-0.8,1.9-1.9v-1.2l28.6-17.2v18.8h-4.8c-0.7,0-1.3,0.6-1.3,1.3v8
		c0,0.7,0.6,1.3,1.3,1.3h12.2c0.7,0,1.3-0.6,1.3-1.3v-8c0-0.7-0.6-1.3-1.3-1.3h-4.8V19.8l3.7-2.7c0.3-0.2,0.5-0.6,0.5-1.1v-3.2
		c0-0.5-0.2-0.9-0.6-1.1c-0.4-0.2-0.9-0.3-1.3,0L48.8,31.7h-6c-1,0-1.9,0.8-1.9,1.9v6.5c0,1,0.8,1.9,1.9,1.9h1.3v32.7h-9.3
		c-1.6,0-2.8,1.3-2.8,2.8c0,1.6,1.3,2.8,2.8,2.8h71.6c1.6,0,2.8-1.3,2.8-2.8C109.2,75.9,107.9,74.7,106.4,74.7L106.4,74.7z
		 M106.4,74.7"/>
	<path fill="#0F4783" d="M63.6,58.1c-1,0-1.7,0.8-1.7,1.7v10.6c0,1,0.8,1.7,1.7,1.7h16.1c1,0,1.8-0.8,1.8-1.7V59.9
		c0-1-0.8-1.7-1.8-1.7H63.6z M63.6,58.1"/>
	<path fill="#0F4783" d="M85,59.9v10.6c0,1,0.8,1.7,1.8,1.7h16.1c1,0,1.8-0.8,1.8-1.7V59.9c0-1-0.8-1.7-1.8-1.7H86.7
		C85.7,58.1,85,58.9,85,59.9L85,59.9z M85,59.9"/>
</g>
</svg>
